<?xml version="1.0" standalone="no"?><!-- Generator: Adobe Fireworks CS6, Export SVG Extension by Aaron Beall (http://fireworks.abeall.com) . Version: 0.6.1  --><!DOCTYPE svg PUBLIC "-//W3C//DTD SVG 1.1//EN" "http://www.w3.org/Graphics/SVG/1.1/DTD/svg11.dtd"><svg id="Untitled-Page%201" viewBox="0 0 139 66" style="background-color:#ffffff00" version="1.1"	xmlns="http://www.w3.org/2000/svg" xmlns:xlink="http://www.w3.org/1999/xlink" xml:space="preserve"	x="0px" y="0px" width="139px" height="66px">	<g id="Layer%201">		<path d="M 66.9805 53.6963 L 66.9805 50.9346 L 67.4475 50.9346 L 67.4475 53.6963 L 66.9805 53.6963 Z" fill="#323231"/>		<path d="M 72.0961 53.6963 L 70.6211 51.7153 L 70.6211 53.6963 L 70.1541 53.6963 L 70.1541 50.9346 L 70.6127 50.9346 L 72.0961 52.9189 L 72.0961 50.9346 L 72.5547 50.9346 L 72.5547 53.6963 L 72.0961 53.6963 Z" fill="#323231"/>		<path d="M 76.2795 51.3525 L 76.2795 53.6963 L 75.8126 53.6963 L 75.8126 51.3525 L 74.9385 51.3525 L 74.9385 50.9346 L 77.1575 50.9346 L 77.1575 51.3525 L 76.2795 51.3525 Z" fill="#323231"/>		<path d="M 80.0039 51.3525 L 80.0039 52.0981 L 81.3564 52.0981 L 81.3564 52.5166 L 80.0039 52.5166 L 80.0039 53.2783 L 81.562 53.2783 L 81.562 53.6963 L 79.5369 53.6963 L 79.5369 50.9346 L 81.5143 50.9346 L 81.5143 51.3525 L 80.0039 51.3525 Z" fill="#323231"/>		<path d="M 85.3608 52.8594 C 85.3217 52.8633 85.2778 52.8633 85.2346 52.8633 L 84.5784 52.8633 L 84.5784 53.6963 L 84.1113 53.6963 L 84.1113 50.9346 L 85.2346 50.9346 C 85.9425 50.9346 86.3502 51.2773 86.3502 51.877 C 86.3502 52.3193 86.1442 52.6309 85.7764 52.7729 L 86.3973 53.6963 L 85.8672 53.6963 L 85.3608 52.8594 ZM 85.2346 52.4453 C 85.6617 52.4453 85.9071 52.2642 85.9071 51.8896 C 85.9071 51.5264 85.6617 51.3525 85.2346 51.3525 L 84.5784 51.3525 L 84.5784 52.4453 L 85.2346 52.4453 Z" fill="#323231"/>		<path d="M 88.9512 53.6963 L 88.9512 50.9346 L 89.4182 50.9346 L 89.4182 53.6963 L 88.9512 53.6963 Z" fill="#323231"/>		<path d="M 94.8301 52.3154 C 94.8301 53.1045 94.1891 53.7163 93.3627 53.7163 C 92.5364 53.7163 91.8955 53.1045 91.8955 52.3154 C 91.8955 51.5225 92.5364 50.9224 93.3627 50.9224 C 94.1891 50.9224 94.8301 51.5264 94.8301 52.3154 ZM 92.3701 52.3154 C 92.3701 52.8633 92.825 53.2979 93.3666 53.2979 C 93.9082 53.2979 94.3514 52.8633 94.3514 52.3154 C 94.3514 51.7666 93.9082 51.3408 93.3666 51.3408 C 92.821 51.3408 92.3701 51.7666 92.3701 52.3154 Z" fill="#323231"/>		<path d="M 98.5588 52.8594 C 98.5195 52.8633 98.4757 52.8633 98.4325 52.8633 L 97.7761 52.8633 L 97.7761 53.6963 L 97.3092 53.6963 L 97.3092 50.9346 L 98.4325 50.9346 C 99.1404 50.9346 99.5481 51.2773 99.5481 51.877 C 99.5481 52.3193 99.342 52.6309 98.9742 52.7729 L 99.5952 53.6963 L 99.0649 53.6963 L 98.5588 52.8594 ZM 98.4325 52.4453 C 98.8596 52.4453 99.105 52.2642 99.105 51.8896 C 99.105 51.5264 98.8596 51.3525 98.4325 51.3525 L 97.7761 51.3525 L 97.7761 52.4453 L 98.4325 52.4453 Z" fill="#323231"/>		<path d="M 106.2837 50.9346 C 107.1145 50.9346 107.7155 51.5142 107.7155 52.3154 C 107.7155 53.1123 107.1106 53.6963 106.272 53.6963 L 105.1487 53.6963 L 105.1487 50.9346 L 106.2837 50.9346 ZM 105.6157 53.2783 L 106.2959 53.2783 C 106.8337 53.2783 107.2446 52.8799 107.2446 52.3193 C 107.2446 51.7549 106.8214 51.3525 106.2759 51.3525 L 105.6157 51.3525 L 105.6157 53.2783 Z" fill="#323231"/>		<path d="M 110.6616 51.3525 L 110.6616 52.0981 L 112.0143 52.0981 L 112.0143 52.5166 L 110.6616 52.5166 L 110.6616 53.2783 L 112.2197 53.2783 L 112.2197 53.6963 L 110.1946 53.6963 L 110.1946 50.9346 L 112.1721 50.9346 L 112.1721 51.3525 L 110.6616 51.3525 Z" fill="#323231"/>		<path d="M 116.6479 51.1982 L 116.4541 51.6094 C 116.1533 51.4272 115.8525 51.3525 115.6432 51.3525 C 115.3701 51.3525 115.1924 51.4551 115.1924 51.6406 C 115.1924 52.2441 116.6873 51.9209 116.6835 52.915 C 116.6835 53.4082 116.2487 53.7124 115.6393 53.7124 C 115.2039 53.7124 114.793 53.5342 114.5083 53.2744 L 114.7098 52.8721 C 114.9946 53.1318 115.3508 53.2744 115.647 53.2744 C 115.9717 53.2744 116.1655 53.1523 116.1655 52.9385 C 116.1655 52.3232 114.6699 52.666 114.6699 51.6836 C 114.6699 51.21 115.0776 50.9146 115.6786 50.9146 C 116.0387 50.9146 116.391 51.0293 116.6479 51.1982 Z" fill="#323231"/>		<path d="M 119.2096 53.6963 L 119.2096 50.9346 L 119.6766 50.9346 L 119.6766 53.6963 L 119.2096 53.6963 Z" fill="#323231"/>		<path d="M 124.6852 52.3389 L 124.6852 53.3574 C 124.4044 53.5698 123.989 53.7163 123.6095 53.7163 C 122.7903 53.7163 122.1538 53.1045 122.1538 52.3154 C 122.1538 51.5264 122.7986 50.9224 123.6372 50.9224 C 124.0327 50.9224 124.4282 51.0723 124.7007 51.3091 L 124.4359 51.6523 C 124.2222 51.4551 123.9258 51.3369 123.6372 51.3369 C 123.071 51.3369 122.6285 51.7666 122.6285 52.3154 C 122.6285 52.8672 123.0756 53.2979 123.6411 53.2979 C 123.8466 53.2979 124.0797 53.2266 124.2775 53.1084 L 124.2775 52.3389 L 124.6852 52.3389 Z" fill="#323231"/>		<path d="M 129.2681 53.6963 L 127.7931 51.7153 L 127.7931 53.6963 L 127.326 53.6963 L 127.326 50.9346 L 127.7847 50.9346 L 129.2681 52.9189 L 129.2681 50.9346 L 129.7267 50.9346 L 129.7267 53.6963 L 129.2681 53.6963 Z" fill="#323231"/>		<path d="M 70.907 21.6865 L 66.6006 10.6309 L 69.6085 10.6309 L 72.4426 18.7646 L 75.276 10.6309 L 78.1733 10.6309 L 73.8197 21.6865 L 70.907 21.6865 Z" fill="#323231"/>		<path d="M 79.2644 21.6865 L 79.2644 10.6309 L 82.0824 10.6309 L 82.0824 21.6865 L 79.2644 21.6865 Z" fill="#323231"/>		<path d="M 92.0398 21.6865 L 86.9423 14.8799 L 86.9423 21.6865 L 84.2981 21.6865 L 84.2981 10.6309 L 86.7837 10.6309 L 91.8973 17.4541 L 91.8973 10.6309 L 94.5254 10.6309 L 94.5254 21.6865 L 92.0398 21.6865 Z" fill="#323231"/>		<path d="M 101.8701 12.8896 L 101.8701 21.6865 L 99.0521 21.6865 L 99.0521 12.8896 L 95.7434 12.8896 L 95.7434 10.6152 L 105.2104 10.6152 L 105.2104 12.8896 L 101.8701 12.8896 Z" fill="#323231"/>		<path d="M 107.7426 19.6494 L 106.9354 21.6865 L 104.0382 21.6865 L 108.8195 10.6309 L 111.7161 10.6309 L 116.3865 21.6865 L 113.3784 21.6865 L 112.5869 19.6494 L 107.7426 19.6494 ZM 110.1804 13.4268 L 108.5657 17.5176 L 111.7637 17.5176 L 110.1804 13.4268 Z" fill="#323231"/>		<path d="M 126.9126 16.064 L 126.9126 20.376 C 125.7255 21.2134 123.8575 21.8135 122.3059 21.8135 C 118.934 21.8135 116.3853 19.3813 116.3853 16.1592 C 116.3853 12.9531 118.9971 10.5361 122.4958 10.5361 C 124.1422 10.5361 125.8839 11.168 127.0233 12.1787 L 125.4408 14.0898 C 124.6331 13.3477 123.509 12.8896 122.4797 12.8896 C 120.6595 12.8896 119.2664 14.311 119.2664 16.1592 C 119.2664 18.0386 120.6757 19.46 122.512 19.46 C 123.0813 19.46 123.8098 19.2549 124.4746 18.9229 L 124.4746 16.064 L 126.9126 16.064 Z" fill="#323231"/>		<path d="M 131.6925 12.8418 L 131.6925 15.0371 L 136.98 15.0371 L 136.98 17.249 L 131.6925 17.249 L 131.6925 19.4756 L 137.7246 19.4756 L 137.7246 21.6865 L 128.8745 21.6865 L 128.8745 10.6309 L 137.55 10.6309 L 137.55 12.8418 L 131.6925 12.8418 Z" fill="#323231"/>		<path d="M 77.4132 40.6377 L 77.3977 33.4517 L 74.7383 39.5327 L 72.9019 39.5327 L 70.2417 33.4517 L 70.2417 40.6377 L 67.7245 40.6377 L 67.7245 29.5664 L 70.8118 29.5664 L 73.8197 36.1523 L 76.8278 29.5664 L 79.8988 29.5664 L 79.8988 40.6377 L 77.4132 40.6377 Z" fill="#323231"/>		<path d="M 82.1294 40.6377 L 82.1294 29.582 L 84.9474 29.582 L 84.9474 40.6377 L 82.1294 40.6377 Z" fill="#323231"/>		<path d="M 94.9048 40.6377 L 89.8073 33.8311 L 89.8073 40.6377 L 87.1631 40.6377 L 87.1631 29.582 L 89.6487 29.582 L 94.7623 36.4053 L 94.7623 29.582 L 97.3904 29.582 L 97.3904 40.6377 L 94.9048 40.6377 Z" fill="#323231"/>		<path d="M 99.6055 40.6377 L 99.6055 29.582 L 102.4235 29.582 L 102.4235 40.6377 L 99.6055 40.6377 Z" fill="#323231"/>		<path d="M 114.3279 40.6377 L 114.3125 33.4517 L 111.653 39.5327 L 109.8165 39.5327 L 107.1564 33.4517 L 107.1564 40.6377 L 104.6392 40.6377 L 104.6392 29.5664 L 107.7264 29.5664 L 110.7344 36.1523 L 113.7424 29.5664 L 116.8135 29.5664 L 116.8135 40.6377 L 114.3279 40.6377 Z" fill="#323231"/>		<path d="M 121.5613 38.6006 L 120.7542 40.6377 L 117.8571 40.6377 L 122.6383 29.582 L 125.5348 29.582 L 130.2053 40.6377 L 127.1973 40.6377 L 126.4056 38.6006 L 121.5613 38.6006 ZM 123.9993 32.3779 L 122.3845 36.4683 L 125.5825 36.4683 L 123.9993 32.3779 Z" fill="#323231"/>		<path d="M 138.7527 38.2852 L 138.7527 40.6377 L 131.2327 40.6377 L 131.2327 29.582 L 134.0505 29.582 L 134.0505 38.2852 L 138.7527 38.2852 Z" fill="#323231"/>		<path d="M 54.0847 59.9795 L 0 59.9795 L 0 6.0205 L 54.0847 6.0205 L 54.0847 59.9795 ZM 1.3191 58.6631 L 52.7656 58.6631 L 52.7656 7.3369 L 1.3191 7.3369 L 1.3191 58.6631 Z" fill="#323231"/>		<path d="M 16.8763 37.2368 L 16.3057 37.2368 L 16.3057 33.4893 L 11.397 33.4893 L 11.397 37.2368 L 10.8262 37.2368 L 10.8262 29.4155 L 11.397 29.4155 L 11.397 33.0635 L 16.3057 33.0635 L 16.3057 29.4155 L 16.8763 29.4155 L 16.8763 37.2368 Z" fill="#323231"/>		<path d="M 41.4498 34.6279 C 41.4498 35.0664 41.3965 35.4531 41.2896 35.7881 C 41.1826 36.124 41.0273 36.4063 40.8237 36.6338 C 40.6208 36.8623 40.3755 37.0352 40.0869 37.1514 C 39.7991 37.2666 39.4738 37.3252 39.1124 37.3252 C 38.9456 37.3252 38.7775 37.3115 38.608 37.2861 C 38.438 37.2607 38.2628 37.2197 38.0818 37.165 C 38.085 37.1133 38.0902 37.062 38.0953 37.0098 C 38.1011 36.9585 38.1075 36.9072 38.1147 36.855 C 38.1224 36.8223 38.136 36.793 38.1565 36.7671 C 38.1765 36.7412 38.2126 36.7285 38.2642 36.7285 C 38.2976 36.7285 38.3375 36.7349 38.3833 36.7476 C 38.4297 36.7607 38.4844 36.7739 38.5469 36.7891 C 38.61 36.8037 38.6833 36.8174 38.7684 36.8306 C 38.8535 36.8438 38.9514 36.8496 39.0621 36.8496 C 39.343 36.8496 39.5962 36.8057 39.8215 36.7168 C 40.0464 36.6289 40.2383 36.4932 40.3975 36.3105 C 40.5565 36.1279 40.677 35.8984 40.7607 35.6201 C 40.8438 35.3418 40.885 35.0146 40.885 34.6387 L 40.885 29.4155 L 41.4498 29.4155 L 41.4498 34.6279 Z" fill="#323231"/>		<path d="M 29.6852 12.9648 L 29.6852 13.4346 L 25.5577 13.4346 L 25.5577 16.5962 L 28.9928 16.5962 L 28.9928 17.0552 L 25.5577 17.0552 L 25.5577 20.3164 L 29.6962 20.3164 L 29.6852 20.7861 L 24.9871 20.7861 L 24.9871 12.9648 L 29.6852 12.9648 Z" fill="#323231"/>		<path d="M 30.7131 53.6875 L 30.2759 53.6875 C 30.2236 53.6875 30.1812 53.6733 30.1483 53.6455 C 30.1149 53.6182 30.0891 53.583 30.0703 53.5381 L 29.1505 51.2661 L 25.3 51.2661 L 24.3802 53.5381 C 24.3655 53.5791 24.3396 53.6133 24.303 53.6431 C 24.2662 53.6729 24.2218 53.6875 24.1703 53.6875 L 23.738 53.6875 L 26.9458 45.8662 L 27.5055 45.8662 L 30.7131 53.6875 ZM 25.4663 50.8467 L 28.9792 50.8467 L 27.3831 46.8945 C 27.3278 46.7656 27.2743 46.6104 27.2227 46.4297 C 27.197 46.5186 27.1711 46.6035 27.1454 46.6846 C 27.119 46.7656 27.0933 46.8369 27.0675 46.8994 L 25.4663 50.8467 Z" fill="#323231"/>		<path d="M 43.998 17.0146 L 43.0653 16.084 L 27.0424 32.0693 L 11.0194 16.084 L 10.0868 17.0146 L 26.1097 33 L 10.0868 48.9854 L 11.0194 49.916 L 27.0424 33.9307 L 43.0653 49.916 L 43.998 48.9854 L 27.9751 33 L 43.998 17.0146 Z" fill="#323231"/>	</g></svg>