<?xml version="1.0" standalone="no"?><!-- Generator: Adobe Fireworks CS6, Export SVG Extension by Aaron Beall (http://fireworks.abeall.com) . Version: 0.6.1  --><!DOCTYPE svg PUBLIC "-//W3C//DTD SVG 1.1//EN" "http://www.w3.org/Graphics/SVG/1.1/DTD/svg11.dtd"><svg id="Untitled-Page%201" viewBox="0 0 139 66" style="background-color:#ffffff00" version="1.1"	xmlns="http://www.w3.org/2000/svg" xmlns:xlink="http://www.w3.org/1999/xlink" xml:space="preserve"	x="0px" y="0px" width="139px" height="66px">	<g id="Layer%201">		<path d="M 23.4102 62.1563 L 2.9108 62.1563 L 2.9108 62.1563 " fill="#323231"/>		<path d="M 23.4102 62.4482 L 2.9108 62.4482 L 2.9108 61.8638 L 23.4102 61.8638 L 23.4102 62.4482 Z" fill="#323231"/>		<path d="M 131.7637 62.1563 L 111.2644 62.1563 L 111.2644 62.1563 " fill="#323231"/>		<path d="M 131.7637 62.4482 L 111.2644 62.4482 L 111.2644 61.8638 L 131.7637 61.8638 L 131.7637 62.4482 Z" fill="#323231"/>		<path d="M 3.9221 52.1055 L 0 42.2842 L 1.7852 42.2842 L 4.8218 50.2676 L 7.8864 42.2842 L 9.6155 42.2842 L 5.6373 52.1055 L 3.9221 52.1055 Z" fill="#323231"/>		<path d="M 11.6527 52.1055 L 11.6527 42.2842 L 13.3115 42.2842 L 13.3115 52.1055 L 11.6527 52.1055 Z" fill="#323231"/>		<path d="M 23.5028 52.1055 L 18.2589 45.0625 L 18.2589 52.1055 L 16.6003 52.1055 L 16.6003 42.2842 L 18.231 42.2842 L 23.5028 49.3418 L 23.5028 42.2842 L 25.1334 42.2842 L 25.1334 52.1055 L 23.5028 52.1055 Z" fill="#323231"/>		<path d="M 32.0349 43.7715 L 32.0349 52.1055 L 30.3762 52.1055 L 30.3762 43.7715 L 27.2692 43.7715 L 27.2692 42.2842 L 35.156 42.2842 L 35.156 43.7715 L 32.0349 43.7715 Z" fill="#323231"/>		<path d="M 37.6996 49.8887 L 36.7582 52.1055 L 35.0291 52.1055 L 39.3727 42.2842 L 41.0737 42.2842 L 45.3755 52.1055 L 43.604 52.1055 L 42.6626 49.8887 L 37.6996 49.8887 ZM 40.1738 44.0518 L 38.3185 48.4155 L 42.0294 48.4155 L 40.1738 44.0518 Z" fill="#323231"/>		<path d="M 55.314 47.2793 L 55.314 50.8994 C 54.3159 51.6567 52.8396 52.1758 51.4897 52.1758 C 48.5801 52.1758 46.3169 50.001 46.3169 47.1948 C 46.3169 44.3887 48.6082 42.2422 51.5881 42.2422 C 52.994 42.2422 54.3999 42.7754 55.37 43.6172 L 54.428 44.8379 C 53.6689 44.1357 52.6147 43.7153 51.5881 43.7153 C 49.5781 43.7153 48.0037 45.2446 48.0037 47.1948 C 48.0037 49.1592 49.5919 50.6885 51.6024 50.6885 C 52.3334 50.6885 53.1628 50.436 53.8657 50.0151 L 53.8657 47.2793 L 55.314 47.2793 Z" fill="#323231"/>		<path d="M 60.0212 43.7715 L 60.0212 46.4229 L 64.8291 46.4229 L 64.8291 47.9102 L 60.0212 47.9102 L 60.0212 50.6182 L 65.5603 50.6182 L 65.5603 52.1055 L 58.3625 52.1055 L 58.3625 42.2842 L 65.3914 42.2842 L 65.3914 43.7715 L 60.0212 43.7715 Z" fill="#323231"/>		<path d="M 81.4861 52.1055 L 81.4717 44.7676 L 78.3655 51.082 L 77.2827 51.082 L 74.1758 44.7676 L 74.1758 52.1055 L 72.6154 52.1055 L 72.6154 42.2842 L 74.5835 42.2842 L 77.8313 48.8086 L 81.0645 42.2842 L 83.0183 42.2842 L 83.0183 52.1055 L 81.4861 52.1055 Z" fill="#323231"/>		<path d="M 86.3203 52.1055 L 86.3203 42.2842 L 87.979 42.2842 L 87.979 52.1055 L 86.3203 52.1055 Z" fill="#323231"/>		<path d="M 98.1709 52.1055 L 92.9271 45.0625 L 92.9271 52.1055 L 91.2684 52.1055 L 91.2684 42.2842 L 92.8992 42.2842 L 98.1709 49.3418 L 98.1709 42.2842 L 99.8015 42.2842 L 99.8015 52.1055 L 98.1709 52.1055 Z" fill="#323231"/>		<path d="M 103.1041 52.1055 L 103.1041 42.2842 L 104.7629 42.2842 L 104.7629 52.1055 L 103.1041 52.1055 Z" fill="#323231"/>		<path d="M 116.9224 52.1055 L 116.9081 44.7676 L 113.8018 51.082 L 112.719 51.082 L 109.6121 44.7676 L 109.6121 52.1055 L 108.0518 52.1055 L 108.0518 42.2842 L 110.0198 42.2842 L 113.2675 48.8086 L 116.5009 42.2842 L 118.4546 42.2842 L 118.4546 52.1055 L 116.9224 52.1055 Z" fill="#323231"/>		<path d="M 123.1482 49.8887 L 122.2068 52.1055 L 120.4777 52.1055 L 124.8213 42.2842 L 126.5222 42.2842 L 130.824 52.1055 L 129.0527 52.1055 L 128.1111 49.8887 L 123.1482 49.8887 ZM 125.6226 44.0518 L 123.7671 48.4155 L 127.478 48.4155 L 125.6226 44.0518 Z" fill="#323231"/>		<path d="M 138.7527 50.6045 L 138.7527 52.1055 L 132.834 52.1055 L 132.834 42.2842 L 134.4927 42.2842 L 134.4927 50.6045 L 138.7527 50.6045 Z" fill="#323231"/>		<path d="M 30.188 63.8726 L 30.188 60.6006 L 30.7405 60.6006 L 30.7405 63.8726 L 30.188 63.8726 Z" fill="#323231"/>		<path d="M 36.2451 63.8726 L 34.4983 61.5264 L 34.4983 63.8726 L 33.9458 63.8726 L 33.9458 60.6006 L 34.4893 60.6006 L 36.2451 62.9517 L 36.2451 60.6006 L 36.7885 60.6006 L 36.7885 63.8726 L 36.2451 63.8726 Z" fill="#323231"/>		<path d="M 41.1984 61.0957 L 41.1984 63.8726 L 40.6458 63.8726 L 40.6458 61.0957 L 39.6111 61.0957 L 39.6111 60.6006 L 42.2383 60.6006 L 42.2383 61.0957 L 41.1984 61.0957 Z" fill="#323231"/>		<path d="M 45.6077 61.0957 L 45.6077 61.9795 L 47.2097 61.9795 L 47.2097 62.4751 L 45.6077 62.4751 L 45.6077 63.377 L 47.4529 63.377 L 47.4529 63.8726 L 45.0552 63.8726 L 45.0552 60.6006 L 47.3967 60.6006 L 47.3967 61.0957 L 45.6077 61.0957 Z" fill="#323231"/>		<path d="M 51.9514 62.8818 C 51.905 62.8862 51.8535 62.8862 51.8015 62.8862 L 51.0242 62.8862 L 51.0242 63.8726 L 50.4717 63.8726 L 50.4717 60.6006 L 51.8015 60.6006 C 52.6399 60.6006 53.1221 61.0073 53.1221 61.7178 C 53.1221 62.2412 52.879 62.6104 52.4431 62.7783 L 53.1787 63.8726 L 52.5508 63.8726 L 51.9514 62.8818 ZM 51.8015 62.3906 C 52.3076 62.3906 52.5977 62.1758 52.5977 61.7314 C 52.5977 61.3018 52.3076 61.0957 51.8015 61.0957 L 51.0242 61.0957 L 51.0242 62.3906 L 51.8015 62.3906 Z" fill="#323231"/>		<path d="M 56.2021 63.8726 L 56.2021 60.6006 L 56.7548 60.6006 L 56.7548 63.8726 L 56.2021 63.8726 Z" fill="#323231"/>		<path d="M 63.1631 62.2363 C 63.1631 63.1714 62.4047 63.8955 61.426 63.8955 C 60.4473 63.8955 59.6884 63.1714 59.6884 62.2363 C 59.6884 61.2969 60.4473 60.5864 61.426 60.5864 C 62.4047 60.5864 63.1631 61.3018 63.1631 62.2363 ZM 60.2505 62.2363 C 60.2505 62.8862 60.7888 63.4004 61.4305 63.4004 C 62.0723 63.4004 62.5968 62.8862 62.5968 62.2363 C 62.5968 61.5869 62.0723 61.082 61.4305 61.082 C 60.7842 61.082 60.2505 61.5869 60.2505 62.2363 Z" fill="#323231"/>		<path d="M 67.5775 62.8818 C 67.5313 62.8862 67.4797 62.8862 67.4277 62.8862 L 66.6504 62.8862 L 66.6504 63.8726 L 66.0978 63.8726 L 66.0978 60.6006 L 67.4277 60.6006 C 68.2661 60.6006 68.7483 61.0073 68.7483 61.7178 C 68.7483 62.2412 68.5054 62.6104 68.0695 62.7783 L 68.8049 63.8726 L 68.1769 63.8726 L 67.5775 62.8818 ZM 67.4277 62.3906 C 67.9338 62.3906 68.2239 62.1758 68.2239 61.7314 C 68.2239 61.3018 67.9338 61.0957 67.4277 61.0957 L 66.6504 61.0957 L 66.6504 62.3906 L 67.4277 62.3906 Z" fill="#323231"/>		<path d="M 76.7239 60.6006 C 77.707 60.6006 78.4192 61.2876 78.4192 62.2363 C 78.4192 63.1807 77.7025 63.8726 76.7096 63.8726 L 75.3796 63.8726 L 75.3796 60.6006 L 76.7239 60.6006 ZM 75.9323 63.377 L 76.7382 63.377 C 77.3748 63.377 77.8621 62.9048 77.8621 62.2412 C 77.8621 61.5723 77.3611 61.0957 76.7147 61.0957 L 75.9323 61.0957 L 75.9323 63.377 Z" fill="#323231"/>		<path d="M 81.9065 61.0957 L 81.9065 61.9795 L 83.5079 61.9795 L 83.5079 62.4751 L 81.9065 62.4751 L 81.9065 63.377 L 83.7517 63.377 L 83.7517 63.8726 L 81.354 63.8726 L 81.354 60.6006 L 83.6956 60.6006 L 83.6956 61.0957 L 81.9065 61.0957 Z" fill="#323231"/>		<path d="M 88.9949 60.9141 L 88.7656 61.4004 C 88.4098 61.1846 88.054 61.0957 87.8057 61.0957 C 87.4827 61.0957 87.2715 61.2178 87.2715 61.4375 C 87.2715 62.1523 89.0417 61.769 89.0372 62.9473 C 89.0372 63.5313 88.5219 63.8906 87.8011 63.8906 C 87.2859 63.8906 86.7986 63.6807 86.4617 63.3721 L 86.7002 62.8955 C 87.0376 63.2041 87.4591 63.3721 87.8103 63.3721 C 88.1941 63.3721 88.4236 63.2275 88.4236 62.9751 C 88.4236 62.2461 86.6538 62.6523 86.6538 61.4888 C 86.6538 60.9277 87.136 60.5771 87.8475 60.5771 C 88.2737 60.5771 88.6906 60.7129 88.9949 60.9141 Z" fill="#323231"/>		<path d="M 92.0275 63.8726 L 92.0275 60.6006 L 92.58 60.6006 L 92.58 63.8726 L 92.0275 63.8726 Z" fill="#323231"/>		<path d="M 98.5107 62.2646 L 98.5107 63.4707 C 98.1785 63.7227 97.6865 63.8955 97.2368 63.8955 C 96.2681 63.8955 95.5135 63.1714 95.5135 62.2363 C 95.5135 61.3018 96.2771 60.5864 97.27 60.5864 C 97.738 60.5864 98.2063 60.7646 98.5295 61.0444 L 98.2161 61.4512 C 97.9628 61.2178 97.6116 61.0771 97.27 61.0771 C 96.6003 61.0771 96.0758 61.5869 96.0758 62.2363 C 96.0758 62.8906 96.605 63.4004 97.2747 63.4004 C 97.5183 63.4004 97.7947 63.3159 98.0286 63.1758 L 98.0286 62.2646 L 98.5107 62.2646 Z" fill="#323231"/>		<path d="M 103.937 63.8726 L 102.1902 61.5264 L 102.1902 63.8726 L 101.6377 63.8726 L 101.6377 60.6006 L 102.181 60.6006 L 103.937 62.9517 L 103.937 60.6006 L 104.4803 60.6006 L 104.4803 63.8726 L 103.937 63.8726 Z" fill="#323231"/>		<path d="M 81.8521 29.8398 L 71.583 17.0283 C 74.77 14.2715 76.7366 9.9653 77.4292 4.1758 C 77.4978 3.5996 77.0859 3.0762 76.5082 3.0078 C 75.9329 2.938 75.4072 3.3501 75.338 3.9263 C 74.5962 10.127 72.3208 14.3984 68.5756 16.623 C 62.0909 20.4736 53.174 17.0093 53.085 16.9736 C 52.5439 16.7598 51.9324 17.022 51.7174 17.5605 C 51.502 18.0991 51.7646 18.71 52.304 18.9248 C 52.4292 18.9751 53.4402 19.3691 54.9913 19.7578 L 52.4395 29.9404 C 52.4092 30.062 52.4688 30.1875 52.5815 30.2412 C 52.6179 30.2588 52.6566 30.2666 52.6948 30.2666 C 52.7756 30.2666 52.8545 30.2295 52.9054 30.1616 L 60.1421 20.5298 C 60.4877 20.5459 60.8369 20.5566 61.1926 20.5566 C 61.4869 20.5566 61.7855 20.5479 62.0852 20.5352 L 81.5291 30.2393 C 81.6394 30.2949 81.7737 30.2666 81.8516 30.1694 C 81.9294 30.0732 81.9294 29.9365 81.8521 29.8398 ZM 53.2666 28.8057 L 55.5032 19.8799 C 56.6398 20.1416 58.0088 20.3838 59.5116 20.4937 L 53.2666 28.8057 ZM 63.1196 20.4639 C 65.2964 20.2578 67.5552 19.6719 69.6417 18.4355 C 70.1829 18.1147 70.6965 17.7598 71.1838 17.3706 L 80.6927 29.2344 L 63.1196 20.4639 Z" fill="#323231"/>	</g></svg>