<?xml version="1.0" standalone="no"?><!-- Generator: Adobe Fireworks CS6, Export SVG Extension by Aaron Beall (http://fireworks.abeall.com) . Version: 0.6.1  --><!DOCTYPE svg PUBLIC "-//W3C//DTD SVG 1.1//EN" "http://www.w3.org/Graphics/SVG/1.1/DTD/svg11.dtd"><svg id="Untitled-Page%201" viewBox="0 0 139 66" style="background-color:#ffffff00" version="1.1"	xmlns="http://www.w3.org/2000/svg" xmlns:xlink="http://www.w3.org/1999/xlink" xml:space="preserve"	x="0px" y="0px" width="139px" height="66px">	<g id="Layer%201">		<path d="M 0 0 L 0 60.0762 L 45.3351 60.0762 L 45.3351 58.6953 L 1.3739 58.6953 L 1.3739 1.3809 L 137.3789 1.3809 L 137.3789 58.6953 L 93.4177 58.6953 L 93.4177 60.0762 L 138.7527 60.0762 L 138.7527 0 L 0 0 Z" fill="#323231"/>		<path d="M 56.3254 66.291 L 54.9517 66.291 L 54.9517 62.8389 L 56.3254 62.8389 L 56.3254 66.291 Z" fill="#323231"/>		<path d="M 83.8013 66.291 L 82.4274 66.291 L 82.4274 62.8389 L 83.8013 62.8389 L 83.8013 66.291 Z" fill="#323231"/>		<path d="M 87.2356 63.5293 L 51.5171 63.5293 L 51.5171 58.6953 L 87.2356 58.6953 L 87.2356 63.5293 ZM 52.8909 62.1484 L 85.8618 62.1484 L 85.8618 60.0762 L 52.8909 60.0762 L 52.8909 62.1484 Z" fill="#323231"/>		<path d="M 70.0632 59.3857 L 68.6895 59.3857 L 68.6895 52.4805 L 70.0632 52.4805 L 70.0632 59.3857 Z" fill="#323231"/>		<path d="M 83.8013 59.3857 L 82.4274 59.3857 L 82.4274 53.1709 L 56.3254 53.1709 L 56.3254 59.3857 L 54.9517 59.3857 L 54.9517 51.79 L 83.8013 51.79 L 83.8013 59.3857 Z" fill="#323231"/>		<path d="M 36.7 43.125 L 36.7 40.2271 L 37.1863 40.2271 L 37.1863 43.125 L 36.7 43.125 Z" fill="#323231"/>		<path d="M 42.0273 43.125 L 40.4912 41.0459 L 40.4912 43.125 L 40.0049 43.125 L 40.0049 40.2271 L 40.4827 40.2271 L 42.0273 42.3096 L 42.0273 40.2271 L 42.505 40.2271 L 42.505 43.125 L 42.0273 43.125 Z" fill="#323231"/>		<path d="M 46.3843 40.665 L 46.3843 43.125 L 45.8979 43.125 L 45.8979 40.665 L 44.9875 40.665 L 44.9875 40.2271 L 47.2985 40.2271 L 47.2985 40.665 L 46.3843 40.665 Z" fill="#323231"/>		<path d="M 50.2627 40.665 L 50.2627 41.4482 L 51.6714 41.4482 L 51.6714 41.8872 L 50.2627 41.8872 L 50.2627 42.6865 L 51.8855 42.6865 L 51.8855 43.125 L 49.7764 43.125 L 49.7764 40.2271 L 51.8358 40.2271 L 51.8358 40.665 L 50.2627 40.665 Z" fill="#323231"/>		<path d="M 55.8418 42.2471 C 55.8008 42.2515 55.7551 42.2515 55.7102 42.2515 L 55.0266 42.2515 L 55.0266 43.125 L 54.5404 43.125 L 54.5404 40.2271 L 55.7102 40.2271 C 56.4475 40.2271 56.8721 40.5869 56.8721 41.2158 C 56.8721 41.6802 56.6575 42.0073 56.2744 42.1563 L 56.9211 43.125 L 56.369 43.125 L 55.8418 42.2471 ZM 55.7102 41.8125 C 56.155 41.8125 56.4106 41.6221 56.4106 41.229 C 56.4106 40.8477 56.155 40.665 55.7102 40.665 L 55.0266 40.665 L 55.0266 41.8125 L 55.7102 41.8125 Z" fill="#323231"/>		<path d="M 59.5808 43.125 L 59.5808 40.2271 L 60.0671 40.2271 L 60.0671 43.125 L 59.5808 43.125 Z" fill="#323231"/>		<path d="M 65.7031 41.6758 C 65.7031 42.5039 65.0356 43.1465 64.175 43.1465 C 63.3145 43.1465 62.647 42.5039 62.647 41.6758 C 62.647 40.8438 63.3145 40.2139 64.175 40.2139 C 65.0356 40.2139 65.7031 40.8477 65.7031 41.6758 ZM 63.1414 41.6758 C 63.1414 42.2515 63.615 42.707 64.179 42.707 C 64.7432 42.707 65.2046 42.2515 65.2046 41.6758 C 65.2046 41.1001 64.7432 40.6533 64.179 40.6533 C 63.6108 40.6533 63.1414 41.1001 63.1414 41.6758 Z" fill="#323231"/>		<path d="M 69.5864 42.2471 C 69.5454 42.2515 69.4999 42.2515 69.4548 42.2515 L 68.7714 42.2515 L 68.7714 43.125 L 68.285 43.125 L 68.285 40.2271 L 69.4548 40.2271 C 70.192 40.2271 70.6167 40.5869 70.6167 41.2158 C 70.6167 41.6802 70.4021 42.0073 70.019 42.1563 L 70.6658 43.125 L 70.1135 43.125 L 69.5864 42.2471 ZM 69.4548 41.8125 C 69.8997 41.8125 70.1552 41.6221 70.1552 41.229 C 70.1552 40.8477 69.8997 40.665 69.4548 40.665 L 68.7714 40.665 L 68.7714 41.8125 L 69.4548 41.8125 Z" fill="#323231"/>		<path d="M 77.6312 40.2271 C 78.4966 40.2271 79.1223 40.835 79.1223 41.6758 C 79.1223 42.5122 78.4924 43.125 77.6191 43.125 L 76.4492 43.125 L 76.4492 40.2271 L 77.6312 40.2271 ZM 76.9355 42.6865 L 77.644 42.6865 C 78.2041 42.6865 78.6321 42.2681 78.6321 41.6802 C 78.6321 41.0879 78.1913 40.665 77.623 40.665 L 76.9355 40.665 L 76.9355 42.6865 Z" fill="#323231"/>		<path d="M 82.1907 40.665 L 82.1907 41.4482 L 83.5992 41.4482 L 83.5992 41.8872 L 82.1907 41.8872 L 82.1907 42.6865 L 83.8132 42.6865 L 83.8132 43.125 L 81.7043 43.125 L 81.7043 40.2271 L 83.7635 40.2271 L 83.7635 40.665 L 82.1907 40.665 Z" fill="#323231"/>		<path d="M 88.4249 40.5039 L 88.223 40.9351 C 87.9098 40.7441 87.5964 40.665 87.3784 40.665 C 87.094 40.665 86.9089 40.7734 86.9089 40.9678 C 86.9089 41.6011 88.4658 41.2617 88.4619 42.3052 C 88.4619 42.8232 88.009 43.1421 87.3745 43.1421 C 86.9211 43.1421 86.4932 42.9551 86.1965 42.6821 L 86.4065 42.2598 C 86.7029 42.5332 87.074 42.6821 87.3826 42.6821 C 87.7207 42.6821 87.9225 42.5542 87.9225 42.3301 C 87.9225 41.6841 86.365 42.0444 86.365 41.0132 C 86.365 40.5161 86.7896 40.2061 87.4155 40.2061 C 87.7903 40.2061 88.1573 40.3262 88.4249 40.5039 Z" fill="#323231"/>		<path d="M 91.0928 43.125 L 91.0928 40.2271 L 91.5791 40.2271 L 91.5791 43.125 L 91.0928 43.125 Z" fill="#323231"/>		<path d="M 96.7952 41.7012 L 96.7952 42.7695 C 96.5027 42.9922 96.0701 43.1465 95.6748 43.1465 C 94.8218 43.1465 94.1589 42.5039 94.1589 41.6758 C 94.1589 40.8477 94.8303 40.2139 95.7039 40.2139 C 96.1155 40.2139 96.5276 40.3711 96.8113 40.6201 L 96.5356 40.9805 C 96.3127 40.7734 96.0044 40.6494 95.7039 40.6494 C 95.1143 40.6494 94.6533 41.1001 94.6533 41.6758 C 94.6533 42.2554 95.1189 42.707 95.7078 42.707 C 95.9216 42.707 96.1646 42.6323 96.3706 42.5083 L 96.3706 41.7012 L 96.7952 41.7012 Z" fill="#323231"/>		<path d="M 101.5679 43.125 L 100.0317 41.0459 L 100.0317 43.125 L 99.5454 43.125 L 99.5454 40.2271 L 100.0231 40.2271 L 101.5679 42.3096 L 101.5679 40.2271 L 102.0454 40.2271 L 102.0454 43.125 L 101.5679 43.125 Z" fill="#323231"/>		<path d="M 76.2454 32.4551 L 62.5074 32.4551 L 62.5074 31.0742 L 76.2454 31.0742 L 76.2454 32.4551 Z" fill="#323231"/>		<path d="M 24.0145 24.3701 L 23.9971 16.2012 L 20.9966 23.1133 L 18.9246 23.1133 L 15.9241 16.2012 L 15.9241 24.3701 L 13.0845 24.3701 L 13.0845 11.7842 L 16.5674 11.7842 L 19.9602 19.2715 L 23.3538 11.7842 L 26.8185 11.7842 L 26.8185 24.3701 L 24.0145 24.3701 Z" fill="#323231"/>		<path d="M 29.3367 24.3701 L 29.3367 11.8018 L 32.5155 11.8018 L 32.5155 24.3701 L 29.3367 24.3701 Z" fill="#323231"/>		<path d="M 43.7488 24.3701 L 37.9979 16.6318 L 37.9979 24.3701 L 35.0156 24.3701 L 35.0156 11.8018 L 37.8196 11.8018 L 43.5884 19.5586 L 43.5884 11.8018 L 46.5532 11.8018 L 46.5532 24.3701 L 43.7488 24.3701 Z" fill="#323231"/>		<path d="M 49.0526 24.3701 L 49.0526 11.8018 L 52.2314 11.8018 L 52.2314 24.3701 L 49.0526 24.3701 Z" fill="#323231"/>		<path d="M 65.6615 24.3701 L 65.644 16.2012 L 62.6436 23.1133 L 60.5715 23.1133 L 57.571 16.2012 L 57.571 24.3701 L 54.7317 24.3701 L 54.7317 11.7842 L 58.2144 11.7842 L 61.6072 19.2715 L 65.0009 11.7842 L 68.4655 11.7842 L 68.4655 24.3701 L 65.6615 24.3701 Z" fill="#323231"/>		<path d="M 73.823 22.0537 L 72.9122 24.3701 L 69.644 24.3701 L 75.0378 11.8018 L 78.3062 11.8018 L 83.5745 24.3701 L 80.1816 24.3701 L 79.2881 22.0537 L 73.823 22.0537 ZM 76.5734 14.9795 L 74.7522 19.6299 L 78.3596 19.6299 L 76.5734 14.9795 Z" fill="#323231"/>		<path d="M 93.2185 21.6953 L 93.2185 24.3701 L 84.7349 24.3701 L 84.7349 11.8018 L 87.9138 11.8018 L 87.9138 21.6953 L 93.2185 21.6953 Z" fill="#323231"/>		<path d="M 94.7358 24.3701 L 94.7358 11.8018 L 97.9147 11.8018 L 97.9147 24.3701 L 94.7358 24.3701 Z" fill="#323231"/>		<path d="M 110.1479 13.0586 L 108.9519 15.5542 C 107.6299 14.7822 105.9689 14.2432 104.9513 14.2432 C 104.1296 14.2432 103.5754 14.5488 103.5754 15.1592 C 103.5754 17.332 110.1842 16.0928 110.1842 20.6357 C 110.1842 23.1489 107.9692 24.478 105.1833 24.478 C 103.0933 24.478 100.9507 23.6875 99.4683 22.4668 L 100.7006 20.0068 C 101.9863 21.1377 103.9149 21.8926 105.219 21.8926 C 106.2192 21.8926 106.8444 21.5156 106.8444 20.7979 C 106.8444 18.5703 100.2357 19.8994 100.2357 15.4463 C 100.2357 13.1309 102.2185 11.6582 105.219 11.6582 C 107.0227 11.6582 108.8621 12.2148 110.1479 13.0586 Z" fill="#323231"/>		<path d="M 122.8462 24.3701 L 122.8287 16.2012 L 119.8281 23.1133 L 117.7561 23.1133 L 114.7557 16.2012 L 114.7557 24.3701 L 111.9163 24.3701 L 111.9163 11.7842 L 115.3989 11.7842 L 118.7919 19.2715 L 122.1854 11.7842 L 125.6501 11.7842 L 125.6501 24.3701 L 122.8462 24.3701 Z" fill="#323231"/>	</g></svg>