<?xml version="1.0" standalone="no"?><!-- Generator: Adobe Fireworks CS6, Export SVG Extension by Aaron Beall (http://fireworks.abeall.com) . Version: 0.6.1  --><!DOCTYPE svg PUBLIC "-//W3C//DTD SVG 1.1//EN" "http://www.w3.org/Graphics/SVG/1.1/DTD/svg11.dtd"><svg id="Untitled-Page%201" viewBox="0 0 139 66" style="background-color:#ffffff00" version="1.1"	xmlns="http://www.w3.org/2000/svg" xmlns:xlink="http://www.w3.org/1999/xlink" xml:space="preserve"	x="0px" y="0px" width="139px" height="66px">	<g id="Layer%201">		<path d="M 45.8026 48.5898 L 45.8026 46.5254 L 46.1534 46.5254 L 46.1534 48.5898 L 45.8026 48.5898 Z" fill="#323231"/>		<path d="M 49.6459 48.5898 L 48.5378 47.1084 L 48.5378 48.5898 L 48.1869 48.5898 L 48.1869 46.5254 L 48.5314 46.5254 L 49.6459 48.0088 L 49.6459 46.5254 L 49.9905 46.5254 L 49.9905 48.5898 L 49.6459 48.5898 Z" fill="#323231"/>		<path d="M 52.7892 46.8374 L 52.7892 48.5898 L 52.4382 48.5898 L 52.4382 46.8374 L 51.7816 46.8374 L 51.7816 46.5254 L 53.4486 46.5254 L 53.4486 46.8374 L 52.7892 46.8374 Z" fill="#323231"/>		<path d="M 55.5873 46.8374 L 55.5873 47.3955 L 56.6035 47.3955 L 56.6035 47.708 L 55.5873 47.708 L 55.5873 48.2769 L 56.7578 48.2769 L 56.7578 48.5898 L 55.2363 48.5898 L 55.2363 46.5254 L 56.722 46.5254 L 56.722 46.8374 L 55.5873 46.8374 Z" fill="#323231"/>		<path d="M 59.6119 47.9644 C 59.5825 47.9668 59.5497 47.9668 59.5172 47.9668 L 59.024 47.9668 L 59.024 48.5898 L 58.6732 48.5898 L 58.6732 46.5254 L 59.5172 46.5254 C 60.049 46.5254 60.3553 46.7817 60.3553 47.23 C 60.3553 47.5605 60.2006 47.793 59.9242 47.8994 L 60.3907 48.5898 L 59.9924 48.5898 L 59.6119 47.9644 ZM 59.5172 47.6543 C 59.838 47.6543 60.0225 47.519 60.0225 47.2393 C 60.0225 46.9678 59.838 46.8374 59.5172 46.8374 L 59.024 46.8374 L 59.024 47.6543 L 59.5172 47.6543 Z" fill="#323231"/>		<path d="M 62.3094 48.5898 L 62.3094 46.5254 L 62.6604 46.5254 L 62.6604 48.5898 L 62.3094 48.5898 Z" fill="#323231"/>		<path d="M 66.7263 47.5576 C 66.7263 48.1475 66.2448 48.6045 65.6239 48.6045 C 65.0031 48.6045 64.5216 48.1475 64.5216 47.5576 C 64.5216 46.9648 65.0031 46.5161 65.6239 46.5161 C 66.2448 46.5161 66.7263 46.9678 66.7263 47.5576 ZM 64.8782 47.5576 C 64.8782 47.9668 65.2198 48.292 65.6268 48.292 C 66.0338 48.292 66.3667 47.9668 66.3667 47.5576 C 66.3667 47.1475 66.0338 46.8286 65.6268 46.8286 C 65.2169 46.8286 64.8782 47.1475 64.8782 47.5576 Z" fill="#323231"/>		<path d="M 69.5278 47.9644 C 69.4982 47.9668 69.4653 47.9668 69.433 47.9668 L 68.9398 47.9668 L 68.9398 48.5898 L 68.589 48.5898 L 68.589 46.5254 L 69.433 46.5254 C 69.9647 46.5254 70.2711 46.7817 70.2711 47.23 C 70.2711 47.5605 70.1163 47.793 69.84 47.8994 L 70.3064 48.5898 L 69.9081 48.5898 L 69.5278 47.9644 ZM 69.433 47.6543 C 69.7538 47.6543 69.9381 47.519 69.9381 47.2393 C 69.9381 46.9678 69.7538 46.8374 69.433 46.8374 L 68.9398 46.8374 L 68.9398 47.6543 L 69.433 47.6543 Z" fill="#323231"/>		<path d="M 75.3315 46.5254 C 75.9558 46.5254 76.4073 46.9585 76.4073 47.5576 C 76.4073 48.1533 75.953 48.5898 75.3229 48.5898 L 74.4789 48.5898 L 74.4789 46.5254 L 75.3315 46.5254 ZM 74.8297 48.2769 L 75.3407 48.2769 C 75.7448 48.2769 76.0536 47.9795 76.0536 47.5605 C 76.0536 47.1387 75.7356 46.8374 75.3258 46.8374 L 74.8297 46.8374 L 74.8297 48.2769 Z" fill="#323231"/>		<path d="M 78.6208 46.8374 L 78.6208 47.3955 L 79.6371 47.3955 L 79.6371 47.708 L 78.6208 47.708 L 78.6208 48.2769 L 79.7914 48.2769 L 79.7914 48.5898 L 78.27 48.5898 L 78.27 46.5254 L 79.7557 46.5254 L 79.7557 46.8374 L 78.6208 46.8374 Z" fill="#323231"/>		<path d="M 83.1185 46.7227 L 82.9728 47.0293 C 82.7468 46.8936 82.5209 46.8374 82.3636 46.8374 C 82.1583 46.8374 82.0248 46.9141 82.0248 47.0527 C 82.0248 47.5039 83.1481 47.2627 83.1451 48.0054 C 83.1451 48.374 82.8185 48.6016 82.3607 48.6016 C 82.0336 48.6016 81.7247 48.4688 81.5109 48.2739 L 81.6624 47.9736 C 81.8762 48.168 82.1439 48.2739 82.3666 48.2739 C 82.6105 48.2739 82.756 48.1826 82.756 48.0234 C 82.756 47.5635 81.6323 47.8198 81.6323 47.085 C 81.6323 46.7314 81.9387 46.5103 82.3903 46.5103 C 82.6606 46.5103 82.9254 46.5957 83.1185 46.7227 Z" fill="#323231"/>		<path d="M 85.0431 48.5898 L 85.0431 46.5254 L 85.3939 46.5254 L 85.3939 48.5898 L 85.0431 48.5898 Z" fill="#323231"/>		<path d="M 89.157 47.5752 L 89.157 48.3359 C 88.9459 48.4951 88.6339 48.6045 88.3488 48.6045 C 87.7333 48.6045 87.2551 48.1475 87.2551 47.5576 C 87.2551 46.9678 87.7396 46.5161 88.3696 46.5161 C 88.6666 46.5161 88.9639 46.6279 89.1686 46.8052 L 88.9697 47.0615 C 88.809 46.9141 88.5864 46.8262 88.3696 46.8262 C 87.9442 46.8262 87.6117 47.1475 87.6117 47.5576 C 87.6117 47.9702 87.9476 48.292 88.3726 48.292 C 88.5269 48.292 88.702 48.2383 88.8507 48.1504 L 88.8507 47.5752 L 89.157 47.5752 Z" fill="#323231"/>		<path d="M 92.6002 48.5898 L 91.4918 47.1084 L 91.4918 48.5898 L 91.1411 48.5898 L 91.1411 46.5254 L 91.4857 46.5254 L 92.6002 48.0088 L 92.6002 46.5254 L 92.9447 46.5254 L 92.9447 48.5898 L 92.6002 48.5898 Z" fill="#323231"/>		<path d="M 138.7526 48.3672 L 99.109 48.3672 L 99.109 47.3838 L 138.7526 47.3838 L 138.7526 48.3672 Z" fill="#323231"/>		<path d="M 39.6437 48.3672 L 0 48.3672 L 0 47.3838 L 39.6437 47.3838 L 39.6437 48.3672 Z" fill="#323231"/>		<path d="M 9.6664 35.3936 L 9.5775 35.3936 L 7.1696 35.3936 L 7.1696 38.8809 L 3.9943 38.8809 L 3.9943 26.4878 L 9.5775 26.4878 C 12.8774 26.4878 14.7681 28.0459 14.7681 30.8076 C 14.7681 32.7021 13.9657 34.0654 12.5028 34.791 L 15.1248 38.8809 L 11.5219 38.8809 L 9.6664 35.3936 ZM 9.5775 32.9141 C 10.9508 32.9141 11.7538 32.2241 11.7538 30.9141 C 11.7538 29.6221 10.9508 28.9668 9.5775 28.9668 L 7.1696 28.9668 L 7.1696 32.9141 L 9.5775 32.9141 Z" fill="#323231"/>		<path d="M 20.0856 28.9668 L 20.0856 31.4272 L 26.0432 31.4272 L 26.0432 33.9063 L 20.0856 33.9063 L 20.0856 36.4023 L 26.8818 36.4023 L 26.8818 38.8809 L 16.9105 38.8809 L 16.9105 26.4878 L 26.6854 26.4878 L 26.6854 28.9668 L 20.0856 28.9668 Z" fill="#323231"/>		<path d="M 34.7137 29.0195 L 34.7137 38.8809 L 31.5387 38.8809 L 31.5387 29.0195 L 27.8105 29.0195 L 27.8105 26.4707 L 38.4773 26.4707 L 38.4773 29.0195 L 34.7137 29.0195 Z" fill="#323231"/>		<path d="M 45.5063 35.3936 L 45.4174 35.3936 L 43.0094 35.3936 L 43.0094 38.8809 L 39.8344 38.8809 L 39.8344 26.4878 L 45.4174 26.4878 C 48.7174 26.4878 50.608 28.0459 50.608 30.8076 C 50.608 32.7021 49.8057 34.0654 48.3428 34.791 L 50.9647 38.8809 L 47.3618 38.8809 L 45.5063 35.3936 ZM 45.4174 32.9141 C 46.7909 32.9141 47.5936 32.2241 47.5936 30.9141 C 47.5936 29.6221 46.7909 28.9668 45.4174 28.9668 L 43.0094 28.9668 L 43.0094 32.9141 L 45.4174 32.9141 Z" fill="#323231"/>		<path d="M 65.4327 32.6665 C 65.4327 36.2783 62.5432 39.0225 58.6722 39.0225 C 54.8197 39.0225 51.9301 36.2959 51.9301 32.6665 C 51.9301 29.0552 54.8197 26.3818 58.6722 26.3818 C 62.5432 26.3818 65.4327 29.0728 65.4327 32.6665 ZM 55.1764 32.6846 C 55.1764 34.7734 56.7994 36.3848 58.7081 36.3848 C 60.6346 36.3848 62.1686 34.7734 62.1686 32.6846 C 62.1686 30.5957 60.6346 29.0195 58.7081 29.0195 C 56.7816 29.0195 55.1764 30.5957 55.1764 32.6846 Z" fill="#323231"/>		<path d="M 72.4802 26.4878 C 76.4044 26.4878 79.1158 29.002 79.1158 32.6846 C 79.1158 36.3491 76.3685 38.8809 72.3555 38.8809 L 67.111 38.8809 L 67.111 26.4878 L 72.4802 26.4878 ZM 70.286 36.3667 L 72.5514 36.3667 C 74.4957 36.3667 75.8871 34.8799 75.8871 32.7021 C 75.8871 30.5068 74.4247 29.002 72.4086 29.002 L 70.286 29.002 L 70.286 36.3667 Z" fill="#323231"/>		<path d="M 83.9692 28.9668 L 83.9692 31.4272 L 89.9269 31.4272 L 89.9269 33.9063 L 83.9692 33.9063 L 83.9692 36.4023 L 90.7655 36.4023 L 90.7655 38.8809 L 80.7941 38.8809 L 80.7941 26.4878 L 90.5691 26.4878 L 90.5691 28.9668 L 83.9692 28.9668 Z" fill="#323231"/>		<path d="M 102.5397 27.7275 L 101.3444 30.188 C 100.024 29.4268 98.3651 28.8955 97.3485 28.8955 C 96.5282 28.8955 95.9751 29.1963 95.9751 29.7988 C 95.9751 31.9404 102.5748 30.7192 102.5748 35.1982 C 102.5748 37.6768 100.3634 38.9868 97.5807 38.9868 C 95.4935 38.9868 93.3531 38.208 91.8728 37.0039 L 93.1034 34.5786 C 94.3878 35.6938 96.3143 36.4375 97.6161 36.4375 C 98.6149 36.4375 99.2396 36.0654 99.2396 35.3574 C 99.2396 33.1621 92.6399 34.4727 92.6399 30.082 C 92.6399 27.7979 94.6196 26.3467 97.6161 26.3467 C 99.4177 26.3467 101.2552 26.895 102.5397 27.7275 Z" fill="#323231"/>		<path d="M 104.3065 38.8809 L 104.3065 26.4878 L 107.4816 26.4878 L 107.4816 38.8809 L 104.3065 38.8809 Z" fill="#323231"/>		<path d="M 121.0204 32.5781 L 121.0204 37.4111 C 119.6829 38.3496 117.5778 39.0225 115.8298 39.0225 C 112.0305 39.0225 109.1588 36.2959 109.1588 32.6846 C 109.1588 29.0908 112.1017 26.3818 116.0437 26.3818 C 117.899 26.3818 119.861 27.0898 121.1453 28.2231 L 119.3616 30.3652 C 118.4517 29.5332 117.1853 29.0195 116.0258 29.0195 C 113.975 29.0195 112.405 30.6133 112.405 32.6846 C 112.405 34.791 113.9928 36.3848 116.0616 36.3848 C 116.7037 36.3848 117.5245 36.1543 118.2737 35.7827 L 118.2737 32.5781 L 121.0204 32.5781 Z" fill="#323231"/>		<path d="M 131.9563 38.8809 L 126.213 31.2505 L 126.213 38.8809 L 123.2339 38.8809 L 123.2339 26.4878 L 126.0344 26.4878 L 131.796 34.1362 L 131.796 26.4878 L 134.7567 26.4878 L 134.7567 38.8809 L 131.9563 38.8809 Z" fill="#323231"/>		<path d="M 64.3138 19.0796 L 64.3138 17.3242 L 63.907 17.3242 L 63.907 17.0151 L 64.6647 17.0151 L 64.6647 19.0796 L 64.3138 19.0796 Z" fill="#323231"/>		<path d="M 66.6901 18.938 L 66.8265 18.6758 C 66.9542 18.7583 67.13 18.8052 67.2872 18.8052 C 67.6913 18.8052 67.8785 18.5049 67.8663 18.0586 C 67.7566 18.2505 67.5607 18.3511 67.2993 18.3511 C 66.8832 18.3511 66.6305 18.0947 66.6305 17.6934 C 66.6305 17.2656 66.9188 17 67.3612 17 C 67.8873 17 68.2086 17.3721 68.2086 18.0059 C 68.2086 18.6636 67.8606 19.0947 67.3109 19.0947 C 67.1057 19.0947 66.8594 19.0322 66.6901 18.938 ZM 67.8104 17.6846 C 67.8131 17.5049 67.6796 17.3008 67.3793 17.3008 C 67.1266 17.3008 66.9572 17.4453 66.9572 17.6963 C 66.9572 17.9321 67.1119 18.0767 67.3646 18.0767 C 67.6469 18.0767 67.8131 17.897 67.8104 17.6846 Z" fill="#323231"/>		<path d="M 71.449 17.5342 C 71.449 17.7344 71.3334 17.8906 71.1398 17.9766 C 71.3923 18.0586 71.553 18.2505 71.553 18.501 C 71.553 18.8701 71.2438 19.0947 70.7506 19.0947 C 70.2604 19.0947 69.9513 18.8701 69.9513 18.5078 C 69.9513 18.2539 70.1149 18.0586 70.379 17.9766 C 70.1772 17.8848 70.0553 17.7227 70.0553 17.5225 C 70.0553 17.1978 70.3258 17 70.7506 17 C 71.1785 17 71.449 17.2041 71.449 17.5342 ZM 70.2842 18.4692 C 70.2842 18.6934 70.4535 18.8203 70.7506 18.8203 C 71.0479 18.8203 71.2201 18.6934 71.2201 18.4692 C 71.2201 18.2539 71.0479 18.127 70.7506 18.127 C 70.4564 18.127 70.2842 18.2539 70.2842 18.4692 ZM 70.3524 17.5547 C 70.3524 17.7461 70.501 17.856 70.7506 17.856 C 71.0033 17.856 71.1489 17.7461 71.1489 17.5547 C 71.1489 17.3633 71.0033 17.251 70.7506 17.251 C 70.501 17.251 70.3524 17.3633 70.3524 17.5547 Z" fill="#323231"/>		<path d="M 73.7268 17.3271 L 73.7268 17.7734 L 74.0123 17.7705 C 74.4639 17.7705 74.7552 18.0352 74.7552 18.3984 C 74.7552 18.8164 74.4523 19.0918 73.9857 19.0918 C 73.7389 19.0918 73.4506 18.9971 73.2457 18.8555 L 73.3853 18.5723 C 73.5516 18.7109 73.7598 18.79 73.947 18.79 C 74.2175 18.79 74.3806 18.6523 74.3806 18.4189 C 74.3806 18.21 74.2175 18.0796 73.95 18.0796 C 73.8251 18.0796 73.543 18.0918 73.4032 18.1064 L 73.4032 17.0151 L 74.6691 17.0151 L 74.672 17.3271 L 73.7268 17.3271 Z" fill="#323231"/>		<path d="M 138.7526 18.8574 L 81.765 18.8574 L 81.765 17.8735 L 138.7526 17.8735 L 138.7526 18.8574 Z" fill="#323231"/>		<path d="M 56.9877 18.8574 L 0 18.8574 L 0 17.8735 L 56.9877 17.8735 L 56.9877 18.8574 Z" fill="#323231"/>	</g></svg>