<?xml version="1.0" standalone="no"?><!-- Generator: Adobe Fireworks CS6, Export SVG Extension by Aaron Beall (http://fireworks.abeall.com) . Version: 0.6.1  --><!DOCTYPE svg PUBLIC "-//W3C//DTD SVG 1.1//EN" "http://www.w3.org/Graphics/SVG/1.1/DTD/svg11.dtd"><svg id="Untitled-Page%201" viewBox="0 0 139 66" style="background-color:#ffffff00" version="1.1"	xmlns="http://www.w3.org/2000/svg" xmlns:xlink="http://www.w3.org/1999/xlink" xml:space="preserve"	x="0px" y="0px" width="139px" height="66px">	<g id="Layer%201">		<path d="M 41.3161 43.0517 L 41.3161 0.8441 L 96.6902 0.8441 L 96.6902 43.0517 L 97.542 43.0517 L 97.542 0.8441 L 97.542 0 L 96.6902 0 L 41.3161 0 L 40.4642 0 L 40.4642 0.8441 L 40.4642 43.0517 L 41.3161 43.0517 Z" fill="#323231"/>		<path d="M 92.4306 64.1559 L 45.5756 64.1559 L 41.3161 64.1559 L 40.4642 64.1559 L 40.4642 65 L 41.3161 65 L 96.6902 65 L 97.542 65 L 97.542 64.1559 L 96.6902 64.1559 L 92.4306 64.1559 Z" fill="#323231"/>		<path d="M 40.3764 57.7568 L 40.3681 53.3413 L 38.4851 57.1409 L 37.8286 57.1409 L 35.9456 53.3413 L 35.9456 57.7568 L 35 57.7568 L 35 51.8466 L 36.1926 51.8466 L 38.1609 55.7727 L 40.121 51.8466 L 41.3053 51.8466 L 41.3053 57.7568 L 40.3764 57.7568 Z" fill="#323231"/>		<path d="M 44.5841 57.7568 L 44.5841 51.8466 L 45.5894 51.8466 L 45.5894 57.7568 L 44.5841 57.7568 Z" fill="#323231"/>		<path d="M 53.044 57.7568 L 49.866 53.5185 L 49.866 57.7568 L 48.8606 57.7568 L 48.8606 51.8466 L 49.8489 51.8466 L 53.044 56.094 L 53.044 51.8466 L 54.0328 51.8466 L 54.0328 57.7568 L 53.044 57.7568 Z" fill="#323231"/>		<path d="M 57.3114 57.7568 L 57.3114 51.8466 L 58.3169 51.8466 L 58.3169 57.7568 L 57.3114 57.7568 Z" fill="#323231"/>		<path d="M 66.9645 57.7568 L 66.9561 53.3413 L 65.073 57.1409 L 64.4166 57.1409 L 62.5335 53.3413 L 62.5335 57.7568 L 61.588 57.7568 L 61.588 51.8466 L 62.7807 51.8466 L 64.749 55.7727 L 66.7091 51.8466 L 67.8934 51.8466 L 67.8934 57.7568 L 66.9645 57.7568 Z" fill="#323231"/>		<path d="M 72.0156 56.4229 L 71.4445 57.7568 L 70.3962 57.7568 L 73.0293 51.8466 L 74.0605 51.8466 L 76.6678 57.7568 L 75.5942 57.7568 L 75.023 56.4229 L 72.0156 56.4229 ZM 73.5151 52.9103 L 72.3904 55.5368 L 74.64 55.5368 L 73.5151 52.9103 Z" fill="#323231"/>		<path d="M 82.7498 56.8536 L 82.7498 57.7568 L 79.1628 57.7568 L 79.1628 51.8466 L 80.1683 51.8466 L 80.1683 56.8536 L 82.7498 56.8536 Z" fill="#323231"/>		<path d="M 85.4156 57.7568 L 85.4156 51.8466 L 86.4211 51.8466 L 86.4211 57.7568 L 85.4156 57.7568 Z" fill="#323231"/>		<path d="M 93.7396 52.4123 L 93.322 53.2903 C 92.6743 52.9017 92.0267 52.7413 91.5754 52.7413 C 90.9872 52.7413 90.6036 52.9613 90.6036 53.3581 C 90.6036 54.6499 93.8245 53.9577 93.8162 56.085 C 93.8162 57.1409 92.879 57.7911 91.5666 57.7911 C 90.6294 57.7911 89.743 57.4111 89.1299 56.8536 L 89.5641 55.9923 C 90.1777 56.5499 90.9448 56.8536 91.5837 56.8536 C 92.2826 56.8536 92.7002 56.5919 92.7002 56.136 C 92.7002 54.8189 89.4788 55.5536 89.4788 53.4507 C 89.4788 52.4376 90.3565 51.8046 91.652 51.8046 C 92.4273 51.8046 93.1856 52.0499 93.7396 52.4123 Z" fill="#323231"/>		<path d="M 102.0711 57.7568 L 102.0628 53.3413 L 100.1798 57.1409 L 99.5233 57.1409 L 97.6402 53.3413 L 97.6402 57.7568 L 96.6947 57.7568 L 96.6947 51.8466 L 97.8873 51.8466 L 99.8556 55.7727 L 101.8157 51.8466 L 103 51.8466 L 103 57.7568 L 102.0711 57.7568 Z" fill="#323231"/>		<path d="M 72.3638 33.9445 L 72.333 18.0496 L 65.5548 31.7258 L 63.1929 31.7258 L 56.4146 18.0496 L 56.4146 33.9445 L 53.0103 33.9445 L 53.0103 12.6704 L 57.304 12.6704 L 64.3891 26.8025 L 71.4436 12.6704 L 75.7069 12.6704 L 75.7069 33.9445 L 72.3638 33.9445 Z" fill="#323231"/>		<path d="M 81.3783 33.9445 L 81.3783 12.6704 L 84.9972 12.6704 L 84.9972 33.9445 L 81.3783 33.9445 Z" fill="#323231"/>	</g></svg>