<?xml version="1.0" standalone="no"?><!-- Generator: Adobe Fireworks CS6, Export SVG Extension by Aaron Beall (http://fireworks.abeall.com) . Version: 0.6.1  --><!DOCTYPE svg PUBLIC "-//W3C//DTD SVG 1.1//EN" "http://www.w3.org/Graphics/SVG/1.1/DTD/svg11.dtd"><svg id="Untitled-Page%201" viewBox="0 0 139 66" style="background-color:#ffffff00" version="1.1"	xmlns="http://www.w3.org/2000/svg" xmlns:xlink="http://www.w3.org/1999/xlink" xml:space="preserve"	x="0px" y="0px" width="139px" height="66px">	<path d="M 40.8259 12.5732 L 0.2473 12.5732 L 0.2473 53.4268 L 40.8259 53.4268 L 139 53.4268 L 139 12.5732 L 40.8259 12.5732 ZM 39.517 52.1094 L 1.5564 52.1094 L 1.5564 13.8906 L 39.517 13.8906 L 39.517 52.1094 ZM 137.691 52.1094 L 40.8259 52.1094 L 40.8259 13.8906 L 137.691 13.8906 L 137.691 52.1094 Z" fill="#323231"/>	<path d="M 105.6208 33.6592 L 72.8961 33.6592 L 72.8961 32.3408 L 105.6208 32.3408 L 105.6208 33.6592 Z" fill="#323231"/>	<path d="M 62.0593 27.6445 L 59.2098 20.2612 L 61.2002 20.2612 L 63.0756 25.6934 L 64.9508 20.2612 L 66.8677 20.2612 L 63.9871 27.6445 L 62.0593 27.6445 Z" fill="#323231"/>	<path d="M 69.6818 27.6445 L 69.6818 20.2612 L 71.5469 20.2612 L 71.5469 27.6445 L 69.6818 27.6445 Z" fill="#323231"/>	<path d="M 80.2291 27.6445 L 76.8563 23.0986 L 76.8563 27.6445 L 75.1063 27.6445 L 75.1063 20.2612 L 76.7515 20.2612 L 80.1353 24.8174 L 80.1353 20.2612 L 81.8744 20.2612 L 81.8744 27.6445 L 80.2291 27.6445 Z" fill="#323231"/>	<path d="M 88.8258 21.769 L 88.8258 27.6445 L 86.9607 27.6445 L 86.9607 21.769 L 84.7716 21.769 L 84.7716 20.2505 L 91.036 20.2505 L 91.036 21.769 L 88.8258 21.769 Z" fill="#323231"/>	<path d="M 94.8044 26.2837 L 94.2708 27.6445 L 92.3533 27.6445 L 95.5171 20.2612 L 97.4344 20.2612 L 100.5249 27.6445 L 98.5345 27.6445 L 98.0104 26.2837 L 94.8044 26.2837 ZM 96.4182 22.1279 L 95.3496 24.8599 L 97.4658 24.8599 L 96.4182 22.1279 Z" fill="#323231"/>	<path d="M 109.5829 23.8896 L 109.5829 26.769 C 108.7974 27.3276 107.5613 27.7285 106.5342 27.7285 C 104.3029 27.7285 102.6162 26.1045 102.6162 23.9521 C 102.6162 21.8115 104.3451 20.1978 106.66 20.1978 C 107.7499 20.1978 108.9022 20.6201 109.6564 21.2949 L 108.6089 22.5713 C 108.0745 22.0752 107.3306 21.769 106.6499 21.769 C 105.4451 21.769 104.5228 22.7188 104.5228 23.9521 C 104.5228 25.208 105.4553 26.1572 106.6709 26.1572 C 107.048 26.1572 107.5299 26.02 107.9697 25.7988 L 107.9697 23.8896 L 109.5829 23.8896 Z" fill="#323231"/>	<path d="M 114.838 21.7373 L 114.838 23.2041 L 118.3368 23.2041 L 118.3368 24.6802 L 114.838 24.6802 L 114.838 26.167 L 118.8296 26.167 L 118.8296 27.6445 L 112.973 27.6445 L 112.973 20.2612 L 118.7139 20.2612 L 118.7139 21.7373 L 114.838 21.7373 Z" fill="#323231"/>	<path d="M 66.1812 46.0947 L 66.1709 41.2954 L 64.4108 45.3564 L 63.1957 45.3564 L 61.4354 41.2954 L 61.4354 46.0947 L 59.7699 46.0947 L 59.7699 38.7007 L 61.8132 38.7007 L 63.8036 43.0986 L 65.7939 38.7007 L 67.8264 38.7007 L 67.8264 46.0947 L 66.1812 46.0947 Z" fill="#323231"/>	<path d="M 71.3934 46.0947 L 71.3934 38.7119 L 73.2585 38.7119 L 73.2585 46.0947 L 71.3934 46.0947 Z" fill="#323231"/>	<path d="M 81.9408 46.0947 L 78.568 41.5488 L 78.568 46.0947 L 76.818 46.0947 L 76.818 38.7119 L 78.4633 38.7119 L 81.8468 43.2676 L 81.8468 38.7119 L 83.5859 38.7119 L 83.5859 46.0947 L 81.9408 46.0947 Z" fill="#323231"/>	<path d="M 87.1428 46.0947 L 87.1428 38.7119 L 89.0079 38.7119 L 89.0079 46.0947 L 87.1428 46.0947 Z" fill="#323231"/>	<path d="M 98.9788 46.0947 L 98.9685 41.2954 L 97.2083 45.3564 L 95.9932 45.3564 L 94.233 41.2954 L 94.233 46.0947 L 92.5674 46.0947 L 92.5674 38.7007 L 94.6107 38.7007 L 96.6011 43.0986 L 98.5914 38.7007 L 100.6239 38.7007 L 100.6239 46.0947 L 98.9788 46.0947 Z" fill="#323231"/>	<path d="M 105.8566 44.7344 L 105.323 46.0947 L 103.4055 46.0947 L 106.5693 38.7119 L 108.4867 38.7119 L 111.5771 46.0947 L 109.5868 46.0947 L 109.0626 44.7344 L 105.8566 44.7344 ZM 107.4705 40.5781 L 106.4019 43.3101 L 108.5181 43.3101 L 107.4705 40.5781 Z" fill="#323231"/>	<path d="M 119.3256 44.5229 L 119.3256 46.0947 L 114.3491 46.0947 L 114.3491 38.7119 L 116.2141 38.7119 L 116.2141 44.5229 L 119.3256 44.5229 Z" fill="#323231"/>	<path d="M 12.6188 35.2236 L 11.9841 35.2236 L 11.9841 33.0762 L 9.4545 33.0762 L 9.4545 35.2236 L 8.8197 35.2236 L 8.8197 30.5024 L 9.4545 30.5024 L 9.4545 32.6084 L 11.9841 32.6084 L 11.9841 30.5024 L 12.6188 30.5024 L 12.6188 35.2236 Z" fill="#323231"/>	<path d="M 22.1353 20.6182 L 22.1353 21.1387 L 19.8802 21.1387 L 19.8802 22.707 L 21.7063 22.707 L 21.7063 23.208 L 19.8802 23.208 L 19.8802 24.8193 L 22.1384 24.8193 L 22.1353 25.3398 L 19.2456 25.3398 L 19.2456 20.6182 L 22.1353 20.6182 Z" fill="#323231"/>	<path d="M 22.842 45.1084 L 22.3513 45.1084 C 22.2943 45.1084 22.2483 45.0938 22.2137 45.0645 C 22.1787 45.0366 22.1525 45.0005 22.1353 44.9561 L 21.6968 43.8164 L 19.5927 43.8164 L 19.1542 44.9561 C 19.1407 44.9961 19.1158 45.0313 19.0787 45.0615 C 19.0416 45.0928 18.9956 45.1084 18.9414 45.1084 L 18.4504 45.1084 L 20.3252 40.3867 L 20.9668 40.3867 L 22.842 45.1084 ZM 19.769 43.355 L 21.5197 43.355 L 20.7834 41.4341 C 20.7596 41.377 20.7361 41.3115 20.713 41.2368 C 20.6901 41.1621 20.6671 41.082 20.6427 40.9961 C 20.621 41.082 20.5986 41.1631 20.5757 41.2388 C 20.5527 41.314 20.5297 41.3809 20.5054 41.4375 L 19.769 43.355 Z" fill="#323231"/>	<path d="M 31.1869 33.5933 C 31.1869 33.8564 31.1549 34.0928 31.0903 34.3013 C 31.0258 34.5103 30.9313 34.6865 30.8059 34.8301 C 30.6801 34.9746 30.526 35.084 30.3427 35.1616 C 30.1598 35.2383 29.9489 35.2769 29.7111 35.2769 C 29.495 35.2769 29.2745 35.2461 29.0502 35.1846 L 29.0828 34.8086 C 29.0873 34.7715 29.1007 34.7412 29.1237 34.7183 C 29.1467 34.6953 29.1818 34.6836 29.2299 34.6836 C 29.2694 34.6836 29.3212 34.6934 29.3857 34.7129 C 29.4496 34.7329 29.5366 34.7427 29.6459 34.7427 C 29.7897 34.7427 29.9181 34.7207 30.0319 34.6768 C 30.145 34.6328 30.2402 34.5649 30.3164 34.4727 C 30.3931 34.3804 30.4512 34.2627 30.4915 34.1182 C 30.5317 33.9746 30.5522 33.8037 30.5522 33.6064 L 30.5522 30.5024 L 31.1869 30.5024 L 31.1869 33.5933 Z" fill="#323231"/>	<path d="M 30.1227 43.1172 L 10.4878 23.3486 L 10.9506 22.8828 L 30.5853 42.6514 L 30.1227 43.1172 Z" fill="#323231"/>	<path d="M 10.9506 43.1172 L 10.4878 42.6514 L 30.1227 22.8828 L 30.5853 23.3486 L 10.9506 43.1172 Z" fill="#323231"/></svg>