<?xml version="1.0" standalone="no"?><!-- Generator: Adobe Fireworks CS6, Export SVG Extension by Aaron Beall (http://fireworks.abeall.com) . Version: 0.6.1  --><!DOCTYPE svg PUBLIC "-//W3C//DTD SVG 1.1//EN" "http://www.w3.org/Graphics/SVG/1.1/DTD/svg11.dtd"><svg id="Untitled-Page%201" viewBox="0 0 802 802" style="background-color:#ffffff00" version="1.1"	xmlns="http://www.w3.org/2000/svg" xmlns:xlink="http://www.w3.org/1999/xlink" xml:space="preserve"	x="0px" y="0px" width="802px" height="802px">	<g opacity="0.702">		<g>			<path d="M 400.9996 802 C 346.8678 802 294.354 791.3965 244.9167 770.4854 C 221.1559 760.4351 198.2385 747.9961 176.8014 733.5122 C 155.5675 719.167 135.6003 702.6924 117.454 684.5459 C 99.3076 666.3994 82.8326 646.4316 68.4873 625.1982 C 54.004 603.7607 41.5645 580.8428 31.5139 557.0825 C 10.6027 507.645 0 455.1313 0 400.9995 C 0 346.8677 10.6027 294.3535 31.5139 244.917 C 41.5645 221.1563 54.004 198.2388 68.4873 176.8013 C 82.8326 155.5674 99.3076 135.6001 117.454 117.4536 C 135.6003 99.3076 155.5675 82.833 176.8014 68.4868 C 198.2385 54.0039 221.1559 41.564 244.9167 31.5137 C 294.354 10.6025 346.8678 0 400.9996 0 C 455.1313 0 507.6453 10.6025 557.0825 31.5137 C 580.8428 41.564 603.7607 54.0039 625.1978 68.4868 C 646.4316 82.833 666.3994 99.3076 684.5457 117.4536 C 702.6919 135.6001 719.167 155.5674 733.5122 176.8013 C 747.9961 198.2388 760.4355 221.1563 770.4861 244.917 C 791.3975 294.3535 802 346.8677 802 400.9995 C 802 455.1313 791.3975 507.645 770.4861 557.0825 C 760.4355 580.8428 747.9961 603.7607 733.5122 625.1982 C 719.167 646.4316 702.6919 666.3994 684.5457 684.5459 C 666.3994 702.6924 646.4316 719.167 625.1978 733.5122 C 603.7607 747.9961 580.8428 760.4351 557.0825 770.4854 C 507.6453 791.3965 455.1313 802 400.9996 802 ZM 400.9996 0.2852 C 180.0449 0.2852 0.2854 180.0449 0.2854 400.9995 C 0.2854 621.9541 180.0449 801.7139 400.9996 801.7139 C 621.9546 801.7139 801.7146 621.9541 801.7146 400.9995 C 801.7146 180.0449 621.9546 0.2852 400.9996 0.2852 Z" fill="#f6f6f6"/>		</g>		<g>			<path d="M 400.9996 779.3184 C 349.9299 779.3184 300.3865 769.3154 253.745 749.5869 C 208.6957 730.5317 168.2367 703.2524 133.4917 668.5078 C 98.7471 633.7632 71.4681 593.3042 52.4128 548.2544 C 32.6841 501.6128 22.6809 452.0693 22.6809 400.9995 C 22.6809 349.9297 32.6841 300.3857 52.4128 253.7451 C 71.4681 208.6953 98.7471 168.2363 133.4917 133.4917 C 168.2367 98.7471 208.6957 71.4683 253.745 52.4131 C 300.386 32.6846 349.9299 22.6816 400.9996 22.6816 C 452.0693 22.6816 501.6128 32.6846 548.2539 52.4131 C 593.3035 71.4683 633.7627 98.7471 668.5076 133.4917 C 703.2522 168.2363 730.5315 208.6953 749.5869 253.7451 C 769.3154 300.3857 779.3188 349.9297 779.3188 400.9995 C 779.3188 452.0693 769.3154 501.6128 749.5869 548.2544 C 730.5315 593.3032 703.2522 633.7632 668.5076 668.5078 C 633.7627 703.2524 593.3035 730.5317 548.2539 749.5869 C 501.6128 769.3154 452.0693 779.3184 400.9996 779.3184 ZM 400.9996 23.396 C 192.7881 23.396 23.3955 192.7881 23.3955 400.9995 C 23.3955 609.2109 192.7881 778.604 400.9996 778.604 C 609.2114 778.604 778.604 609.2109 778.604 400.9995 C 778.604 192.7881 609.2114 23.396 400.9996 23.396 Z" fill="#f6f6f6"/>		</g>		<g>			<path d="M 400.9996 756.6367 C 352.9916 756.6367 306.4185 747.2324 262.5732 728.687 C 220.2247 710.7744 182.1917 685.1309 149.5298 652.4697 C 116.8683 619.8076 91.2247 581.7744 73.3116 539.4258 C 54.766 495.5811 45.3625 449.0073 45.3625 400.9995 C 45.3625 352.9922 54.766 306.4185 73.3116 262.5732 C 91.2247 220.2246 116.8683 182.1914 149.5298 149.5293 C 182.1917 116.8682 220.2247 91.2246 262.5732 73.3115 C 306.4185 54.7661 352.9916 45.3623 400.9996 45.3623 C 449.0076 45.3623 495.5807 54.7661 539.4258 73.3115 C 581.7744 91.2246 619.8081 116.8682 652.4697 149.5293 C 685.1318 182.1914 710.7749 220.2246 728.688 262.5732 C 747.2339 306.4185 756.6375 352.9922 756.6375 400.9995 C 756.6375 449.0073 747.2339 495.5811 728.688 539.4258 C 710.7749 581.7744 685.1318 619.8076 652.4697 652.4697 C 619.8081 685.1309 581.7744 710.7744 539.4258 728.687 C 495.5807 747.2324 449.0076 756.6367 400.9996 756.6367 ZM 400.9996 46.5059 C 205.5309 46.5059 46.5056 205.5313 46.5056 400.9995 C 46.5056 596.4678 205.5309 755.4932 400.9996 755.4932 C 596.4688 755.4932 755.4944 596.4678 755.4944 400.9995 C 755.4944 205.5313 596.4688 46.5059 400.9996 46.5059 Z" fill="#f6f6f6"/>		</g>		<g>			<path d="M 400.9996 733.9551 C 356.0533 733.9551 312.4502 725.1514 271.4015 707.7881 C 231.7537 691.0186 196.1461 667.0098 165.5679 636.4316 C 134.9891 605.8535 110.9813 570.2451 94.2108 530.5977 C 76.8479 489.5488 68.0443 445.9458 68.0443 400.9995 C 68.0443 356.0532 76.8479 312.4502 94.2108 271.4014 C 110.9813 231.7534 134.9891 196.146 165.5679 165.5674 C 196.1461 134.9893 231.7537 110.981 271.4015 94.2104 C 312.4502 76.8477 356.0533 68.0439 400.9996 68.0439 C 445.9454 68.0439 489.5486 76.8477 530.5973 94.2104 C 570.2451 110.981 605.853 134.9893 636.4316 165.5674 C 667.0103 196.146 691.0183 231.7539 707.7886 271.4014 C 725.1521 312.4502 733.9556 356.0532 733.9556 400.9995 C 733.9556 445.9458 725.1521 489.5488 707.7886 530.5977 C 691.0183 570.2451 667.0103 605.8535 636.4316 636.4316 C 605.853 667.0098 570.2451 691.0186 530.5973 707.7881 C 489.5486 725.1514 445.9454 733.9551 400.9996 733.9551 ZM 400.9996 69.6152 C 218.274 69.6152 69.6157 218.2739 69.6157 400.9995 C 69.6157 583.7256 218.274 732.3838 400.9996 732.3838 C 583.7256 732.3838 732.3843 583.7256 732.3843 400.9995 C 732.3843 218.2739 583.7256 69.6152 400.9996 69.6152 Z" fill="#f6f6f6"/>		</g>		<g>			<path d="M 400.9996 711.2739 C 359.1155 711.2739 318.4827 703.0698 280.2301 686.8896 C 243.2831 671.2617 210.1011 648.8896 181.6055 620.3936 C 153.11 591.8984 130.7379 558.7163 115.1097 521.7695 C 98.9293 483.5166 90.7252 442.8838 90.7252 400.9995 C 90.7252 359.1152 98.9293 318.4824 115.1097 280.23 C 130.7379 243.2832 153.11 210.1006 181.6055 181.6055 C 210.1011 153.1104 243.2831 130.7373 280.2301 115.1099 C 318.4827 98.9297 359.1155 90.7256 400.9996 90.7256 C 442.8838 90.7256 483.5161 98.9297 521.769 115.1099 C 558.7163 130.7373 591.8982 153.1104 620.3936 181.6055 C 648.8892 210.1006 671.2617 243.2832 686.8896 280.23 C 703.0703 318.4824 711.2744 359.1152 711.2744 400.9995 C 711.2744 442.8838 703.0703 483.5166 686.8896 521.7695 C 671.2617 558.7163 648.8892 591.8984 620.3936 620.3936 C 591.8982 648.8896 558.7163 671.2617 521.769 686.8896 C 483.5161 703.0698 442.8838 711.2739 400.9996 711.2739 ZM 400.9996 92.7261 C 231.0168 92.7261 92.7258 231.0166 92.7258 400.9995 C 92.7258 570.9824 231.0168 709.2739 400.9996 709.2739 C 570.9829 709.2739 709.2737 570.9824 709.2737 400.9995 C 709.2737 231.0166 570.9829 92.7261 400.9996 92.7261 Z" fill="#f6f6f6"/>		</g>		<g>			<path d="M 400.9996 688.5918 C 324.1844 688.5918 251.9646 658.6763 197.6437 604.3555 C 143.3223 550.0342 113.4065 477.8145 113.4065 400.9995 C 113.4065 324.1841 143.3223 251.9644 197.6437 197.6436 C 251.9646 143.3223 324.1844 113.4063 400.9996 113.4063 C 477.8147 113.4063 550.0347 143.3223 604.3555 197.6436 C 658.6768 251.9644 688.5928 324.1846 688.5928 400.9995 C 688.5928 477.8145 658.6768 550.0342 604.3555 604.3555 C 550.0347 658.6763 477.8147 688.5918 400.9996 688.5918 ZM 400.9996 115.8359 C 243.7596 115.8359 115.8356 243.7598 115.8356 400.9995 C 115.8356 558.2393 243.7596 686.1636 400.9996 686.1636 C 558.2397 686.1636 686.1636 558.2393 686.1636 400.9995 C 686.1636 243.7598 558.2397 115.8359 400.9996 115.8359 Z" fill="#f6f6f6"/>		</g>		<g>			<path d="M 400.9996 665.9111 C 330.2424 665.9111 263.7183 638.3545 213.6813 588.3174 C 163.6448 538.2803 136.0881 471.7563 136.0881 400.9995 C 136.0881 330.2427 163.6448 263.7183 213.6813 213.6816 C 263.7183 163.6445 330.2424 136.0884 400.9996 136.0884 C 471.7563 136.0884 538.2805 163.6445 588.3174 213.6816 C 638.3545 263.7183 665.9111 330.2427 665.9111 400.9995 C 665.9111 471.7563 638.3545 538.2803 588.3174 588.3174 C 538.2805 638.3545 471.7563 665.9111 400.9996 665.9111 ZM 400.9996 138.9458 C 256.5028 138.9458 138.9457 256.5029 138.9457 400.9995 C 138.9457 545.4961 256.5028 663.0527 400.9996 663.0527 C 545.4966 663.0527 663.0535 545.4961 663.0535 400.9995 C 663.0535 256.5029 545.4966 138.9458 400.9996 138.9458 Z" fill="#f6f6f6"/>		</g>		<g>			<path d="M 400.9996 643.23 C 336.3008 643.23 275.472 618.0322 229.7194 572.2803 C 183.9668 526.5269 158.7699 465.6982 158.7699 400.9995 C 158.7699 336.3008 183.9668 275.4727 229.7194 229.7192 C 275.472 183.9668 336.3008 158.7695 400.9996 158.7695 C 465.6984 158.7695 526.5267 183.9668 572.2793 229.7192 C 618.0325 275.4727 643.2295 336.3008 643.2295 400.9995 C 643.2295 465.6982 618.0325 526.5269 572.2793 572.2803 C 526.5267 618.0322 465.6984 643.23 400.9996 643.23 ZM 400.9996 162.0557 C 269.2455 162.0557 162.0559 269.2451 162.0559 400.9995 C 162.0559 532.7539 269.2455 639.9434 400.9996 639.9434 C 532.7537 639.9434 639.9434 532.7539 639.9434 400.9995 C 639.9434 269.2451 532.7537 162.0557 400.9996 162.0557 Z" fill="#f6f6f6"/>		</g>		<g>			<path d="M 400.9996 620.5488 C 342.3588 620.5488 287.2262 597.7104 245.7574 556.2422 C 204.2885 514.7734 181.4507 459.6406 181.4507 400.9995 C 181.4507 342.3584 204.2885 287.2261 245.7574 245.7573 C 287.2262 204.2881 342.3588 181.4502 400.9996 181.4502 C 459.6401 181.4502 514.7726 204.2881 556.2417 245.7573 C 597.7104 287.2261 620.5483 342.3584 620.5483 400.9995 C 620.5483 459.6396 597.7104 514.7734 556.2417 556.2422 C 514.7726 597.7104 459.6401 620.5488 400.9996 620.5488 ZM 400.9996 185.166 C 281.9883 185.166 185.166 281.9883 185.166 400.9995 C 185.166 520.0107 281.9883 616.8335 400.9996 616.8335 C 520.0109 616.8335 616.8333 520.0107 616.8333 400.9995 C 616.8333 281.9883 520.0109 185.166 400.9996 185.166 Z" fill="#f6f6f6"/>		</g>		<g>			<path d="M 400.9996 597.8662 C 348.417 597.8662 298.9799 577.3882 261.7952 540.2041 C 224.6105 503.0195 204.132 453.582 204.132 400.9995 C 204.132 348.4165 224.6105 298.9795 261.7952 261.7954 C 298.9799 224.6104 348.417 204.1323 400.9996 204.1323 C 453.5818 204.1323 503.0189 224.6104 540.2036 261.7954 C 577.3882 298.9795 597.8667 348.4175 597.8667 400.9995 C 597.8667 453.582 577.3882 503.0195 540.2036 540.2041 C 503.0189 577.3882 453.5822 597.8662 400.9996 597.8662 ZM 400.9996 208.2759 C 294.7314 208.2759 208.2758 294.7314 208.2758 400.9995 C 208.2758 507.2676 294.7314 593.7227 400.9996 593.7227 C 507.2677 593.7227 593.7231 507.2676 593.7231 400.9995 C 593.7231 294.7314 507.2677 208.2759 400.9996 208.2759 Z" fill="#f6f6f6"/>		</g>		<g>			<path d="M 400.9996 575.1855 C 304.9529 575.1855 226.8137 497.0464 226.8137 400.9995 C 226.8137 304.9531 304.9529 226.814 400.9996 226.814 C 497.0459 226.814 575.1851 304.9531 575.1851 400.9995 C 575.1851 497.0464 497.0459 575.1855 400.9996 575.1855 ZM 400.9996 231.3857 C 307.4742 231.3857 231.3859 307.4746 231.3859 400.9995 C 231.3859 494.5254 307.4742 570.6133 400.9996 570.6133 C 494.5245 570.6133 570.6128 494.5254 570.6128 400.9995 C 570.6128 307.4746 494.5245 231.3857 400.9996 231.3857 Z" fill="#f6f6f6"/>		</g>		<g>			<path d="M 400.9996 552.5039 C 317.4596 552.5039 249.495 484.5391 249.495 400.9995 C 249.495 317.46 317.4596 249.4951 400.9996 249.4951 C 484.5392 249.4951 552.5039 317.46 552.5039 400.9995 C 552.5039 484.5391 484.5392 552.5039 400.9996 552.5039 ZM 400.9996 254.4961 C 320.2174 254.4961 254.4963 320.2173 254.4963 400.9995 C 254.4963 481.7822 320.2174 547.5034 400.9996 547.5034 C 481.7817 547.5034 547.5024 481.7822 547.5024 400.9995 C 547.5024 320.2173 481.7817 254.4961 400.9996 254.4961 Z" fill="#f6f6f6"/>		</g>		<g>			<path d="M 400.9996 529.8218 C 329.9663 529.8218 272.1763 472.0332 272.1763 400.9995 C 272.1763 329.9663 329.9663 272.1763 400.9996 272.1763 C 472.0325 272.1763 529.8221 329.9663 529.8221 400.9995 C 529.8221 472.0332 472.0325 529.8218 400.9996 529.8218 ZM 400.9996 277.606 C 332.9602 277.606 277.6061 332.9604 277.6061 400.9995 C 277.6061 469.0386 332.9602 524.3926 400.9996 524.3926 C 469.0386 524.3926 524.3922 469.0386 524.3922 400.9995 C 524.3922 332.9604 469.0386 277.606 400.9996 277.606 Z" fill="#f6f6f6"/>		</g>		<g>			<path d="M 400.9996 507.1416 C 342.4727 507.1416 294.8575 459.5264 294.8575 400.9995 C 294.8575 342.4727 342.4727 294.8579 400.9996 294.8579 C 459.5261 294.8579 507.1407 342.4727 507.1407 400.9995 C 507.1407 459.5264 459.5261 507.1416 400.9996 507.1416 ZM 400.9996 300.7158 C 345.7029 300.7158 300.7158 345.7031 300.7158 400.9995 C 300.7158 456.2954 345.7029 501.2822 400.9996 501.2822 C 456.2959 501.2822 501.2826 456.2954 501.2826 400.9995 C 501.2826 345.7031 456.2959 300.7158 400.9996 300.7158 Z" fill="#f6f6f6"/>		</g>		<g>			<path d="M 400.9996 484.46 C 354.9794 484.46 317.5388 447.0195 317.5388 400.9995 C 317.5388 354.979 354.9794 317.5381 400.9996 317.5381 C 447.0194 317.5381 484.4587 354.979 484.4587 400.9995 C 484.4587 447.0195 447.0194 484.46 400.9996 484.46 ZM 400.9996 323.8262 C 358.4462 323.8262 323.8259 358.4463 323.8259 400.9995 C 323.8259 443.5532 358.4462 478.1724 400.9996 478.1724 C 443.5527 478.1724 478.1716 443.5532 478.1716 400.9995 C 478.1716 358.4463 443.5527 323.8262 400.9996 323.8262 Z" fill="#f6f6f6"/>		</g>		<g>			<path d="M 400.9996 461.7778 C 367.4861 461.7778 340.2206 434.5132 340.2206 400.9995 C 340.2206 367.4863 367.4861 340.2207 400.9996 340.2207 C 434.5127 340.2207 461.7778 367.4863 461.7778 400.9995 C 461.7778 434.5132 434.5127 461.7778 400.9996 461.7778 ZM 400.9996 346.9365 C 371.1888 346.9365 346.9365 371.1895 346.9365 400.9995 C 346.9365 430.8101 371.1888 455.062 400.9996 455.062 C 430.8096 455.062 455.0619 430.8101 455.0619 400.9995 C 455.0619 371.1895 430.8096 346.9365 400.9996 346.9365 Z" fill="#f6f6f6"/>		</g>		<g>			<path d="M 400.9996 439.0967 C 379.9924 439.0967 362.9019 422.0059 362.9019 400.9995 C 362.9019 379.9922 379.9924 362.9019 400.9996 362.9019 C 422.006 362.9019 439.0961 379.9922 439.0961 400.9995 C 439.0961 422.0059 422.006 439.0967 400.9996 439.0967 ZM 400.9996 370.0459 C 383.932 370.0459 370.0463 383.9316 370.0463 400.9995 C 370.0463 418.0664 383.932 431.9521 400.9996 431.9521 C 418.0668 431.9521 431.9518 418.0664 431.9518 400.9995 C 431.9518 383.9316 418.0668 370.0459 400.9996 370.0459 Z" fill="#f6f6f6"/>		</g>	</g></svg>